<svg version="1.1" id="Layer_1" xmlns="http://www.w3.org/2000/svg" xmlns:xlink="http://www.w3.org/1999/xlink" x="0px" y="0px"
	 width="100%" viewBox="0 0 1024 1024" enable-background="new 0 0 1024 1024" xml:space="preserve">
<path fill="#FDFDFD" opacity="1.000000" stroke="none" 
	d="
M945.000000,1025.000000 
	C630.365356,1025.000000 315.730743,1025.000000 1.048052,1025.000000 
	C1.048052,683.733459 1.048052,342.466919 1.048052,1.100176 
	C342.231781,1.100176 683.463623,1.100176 1025.000000,1.100176 
	C1025.000000,336.697540 1025.000000,672.395142 1024.533203,1008.546509 
	C1019.044373,1009.055481 1014.022461,1009.110718 1008.538086,1009.097656 
	C1003.050171,1009.075317 998.024658,1009.121399 992.536987,1009.098572 
	C987.052734,1009.074158 982.030640,1009.118591 976.545044,1009.100464 
	C971.056702,1009.069946 966.031921,1009.102051 960.541565,1009.084961 
	C955.184143,1009.035706 950.292358,1009.035706 945.000000,1009.035706 
	C945.000000,1014.806030 945.000000,1019.903015 945.000000,1025.000000 
M858.354919,753.077087 
	C854.743958,751.375977 851.209656,749.477173 847.497253,748.037659 
	C844.627319,746.924866 843.623901,745.394043 843.625732,742.188110 
	C843.724976,569.366943 843.771545,396.545685 843.557800,223.724747 
	C843.547974,215.747910 842.300720,207.338226 839.578003,199.879105 
	C830.738464,175.663040 813.046082,161.809052 787.238098,159.335785 
	C777.657898,158.417679 767.941345,158.799622 758.286926,158.797699 
	C584.632019,158.763184 410.977051,158.787460 237.322144,158.707184 
	C221.189423,158.699738 207.504120,165.123871 196.393921,175.749878 
	C183.596039,187.989960 177.111816,203.587708 177.125717,221.845230 
	C177.256744,394.000092 177.218002,566.155090 177.228577,738.310059 
	C177.228699,740.309937 177.548645,742.379761 177.125656,744.285156 
	C176.841171,745.566711 175.735321,747.290222 174.611374,747.667603 
	C157.659637,753.357910 146.634048,764.598389 140.956314,781.627075 
	C130.062561,814.299744 150.239731,849.397644 186.091949,853.629395 
	C196.287949,854.832825 206.711945,854.076538 217.029358,854.309204 
	C218.607346,854.344727 220.215149,854.737366 221.735535,855.204407 
	C223.467316,855.736572 225.116272,857.135864 226.801712,857.136658 
	C415.788849,857.224609 604.776001,857.218445 793.763184,857.197388 
	C796.090332,857.197144 799.138306,857.829407 800.613770,856.636963 
	C805.685303,852.538513 811.341614,854.739685 816.712769,854.275330 
	C819.855469,854.003662 823.041809,854.195923 826.207703,854.238647 
	C841.671814,854.447266 855.013794,849.330872 866.510071,838.896484 
	C875.133362,831.069824 880.474609,821.411682 882.448914,810.215515 
	C886.630676,786.501160 878.798096,767.412659 858.354919,753.077087 
z"/>
<path fill="#FFFF66" opacity="1.000000" stroke="none" 
	d="
M945.466858,1025.000000 
	C945.000000,1019.903015 945.000000,1014.806030 945.000000,1009.035706 
	C950.292358,1009.035706 955.184143,1009.035706 960.538818,1009.539429 
	C961.001099,1015.028748 961.000549,1020.014343 961.000000,1025.000000 
	C955.977905,1025.000000 950.955811,1025.000000 945.466858,1025.000000 
z"/>
<path fill="#42FFFF" opacity="1.000000" stroke="none" 
	d="
M961.466858,1025.000000 
	C961.000549,1020.014343 961.001099,1015.028748 961.004395,1009.588623 
	C966.031921,1009.102051 971.056702,1009.069946 976.542480,1009.555298 
	C977.002319,1015.048523 977.001160,1020.024231 977.000000,1025.000000 
	C971.977905,1025.000000 966.955811,1025.000000 961.466858,1025.000000 
z"/>
<path fill="#51DA4C" opacity="1.000000" stroke="none" 
	d="
M977.466858,1025.000000 
	C977.001160,1020.024231 977.002319,1015.048523 977.005981,1009.617920 
	C982.030640,1009.118591 987.052734,1009.074158 992.537170,1009.553833 
	C992.999634,1015.052002 992.999817,1020.026001 993.000000,1025.000000 
	C987.977905,1025.000000 982.955811,1025.000000 977.466858,1025.000000 
z"/>
<path fill="#FF6E3C" opacity="1.000000" stroke="none" 
	d="
M993.466858,1025.000000 
	C992.999817,1020.026001 992.999634,1015.052002 992.999329,1009.622681 
	C998.024658,1009.121399 1003.050171,1009.075317 1008.537964,1009.552795 
	C1009.000183,1015.050842 1009.000122,1020.025452 1009.000000,1025.000000 
	C1003.977905,1025.000000 998.955811,1025.000000 993.466858,1025.000000 
z"/>
<path fill="#3C46FF" opacity="1.000000" stroke="none" 
	d="
M1009.471191,1025.000000 
	C1009.000122,1020.025452 1009.000183,1015.050842 1009.000366,1009.621094 
	C1014.022461,1009.110718 1019.044373,1009.055481 1024.533203,1009.000122 
	C1025.000000,1014.258423 1025.000000,1019.516846 1025.000000,1025.000000 
	C1019.982300,1025.000000 1014.962341,1025.000000 1009.471191,1025.000000 
z"/>
<path fill="#3C4550" opacity="1.000000" stroke="none" 
	d="
M858.667786,753.263184 
	C878.798096,767.412659 886.630676,786.501160 882.448914,810.215515 
	C880.474609,821.411682 875.133362,831.069824 866.510071,838.896484 
	C855.013794,849.330872 841.671814,854.447266 826.207703,854.238647 
	C823.041809,854.195923 819.855469,854.003662 816.712769,854.275330 
	C811.341614,854.739685 805.685303,852.538513 800.613770,856.636963 
	C799.138306,857.829407 796.090332,857.197144 793.763184,857.197388 
	C604.776001,857.218445 415.788849,857.224609 226.801712,857.136658 
	C225.116272,857.135864 223.467316,855.736572 221.735535,855.204407 
	C220.215149,854.737366 218.607346,854.344727 217.029358,854.309204 
	C206.711945,854.076538 196.287949,854.832825 186.091949,853.629395 
	C150.239731,849.397644 130.062561,814.299744 140.956314,781.627075 
	C146.634048,764.598389 157.659637,753.357910 174.611374,747.667603 
	C175.735321,747.290222 176.841171,745.566711 177.125656,744.285156 
	C177.548645,742.379761 177.228699,740.309937 177.228577,738.310059 
	C177.218002,566.155090 177.256744,394.000092 177.125717,221.845230 
	C177.111816,203.587708 183.596039,187.989960 196.393921,175.749878 
	C207.504120,165.123871 221.189423,158.699738 237.322144,158.707184 
	C410.977051,158.787460 584.632019,158.763184 758.286926,158.797699 
	C767.941345,158.799622 777.657898,158.417679 787.238098,159.335785 
	C813.046082,161.809052 830.738464,175.663040 839.578003,199.879105 
	C842.300720,207.338226 843.547974,215.747910 843.557800,223.724747 
	C843.771545,396.545685 843.724976,569.366943 843.625732,742.188110 
	C843.623901,745.394043 844.627319,746.924866 847.497253,748.037659 
	C851.209656,749.477173 854.743958,751.375977 858.667786,753.263184 
M261.499939,746.824402 
	C317.991821,746.813599 374.483734,746.828003 430.975433,746.724182 
	C434.089783,746.718445 436.145905,747.460327 437.972992,750.113220 
	C442.019348,755.988647 445.702667,762.391296 450.838226,767.180481 
	C460.876282,776.541382 472.867615,782.889771 486.888062,783.744690 
	C499.332458,784.503479 511.835541,784.931335 524.295410,784.673035 
	C549.381104,784.153015 568.440430,772.689209 581.258728,751.204102 
	C583.202271,747.946472 585.149292,747.134705 588.648499,747.139954 
	C654.467957,747.239746 720.287659,747.214539 786.107300,747.215332 
	C788.038391,747.215393 789.969421,747.215393 791.858887,747.215393 
	C791.858887,612.701477 791.858887,478.835419 791.858887,345.133301 
	C604.231201,345.133301 417.002686,345.133301 229.640442,345.133301 
	C229.640442,479.253815 229.640442,612.982422 229.640442,746.823975 
	C240.194229,746.823975 250.347046,746.823975 261.499939,746.824402 
M561.149475,216.438919 
	C557.844482,212.312469 553.458496,211.161560 548.319763,211.155548 
	C500.667389,211.099777 453.015137,210.814880 405.362854,210.809540 
	C350.215729,210.803360 295.065918,211.326813 239.923920,210.849350 
	C229.504974,210.759125 220.548584,218.069458 221.668991,229.227142 
	C222.265274,235.165466 221.727539,241.213974 221.771164,247.212250 
	C221.853531,258.535187 221.736649,269.868042 222.201538,281.176239 
	C222.439209,286.957458 226.295441,290.599976 231.973221,291.509979 
	C234.914230,291.981384 237.926804,292.202667 240.907166,292.203583 
	C342.217194,292.235046 443.527252,292.232330 544.837280,292.192566 
	C547.648010,292.191467 550.482117,291.883270 553.264709,291.454712 
	C560.422974,290.352112 564.570679,285.966980 564.711304,278.625275 
	C565.033508,261.809479 565.263428,244.984848 565.028625,228.170822 
	C564.976257,224.421997 562.855652,220.702057 561.149475,216.438919 
z"/>
<path fill="#FCFCFC" opacity="1.000000" stroke="none" 
	d="
M260.999908,746.824219 
	C250.347046,746.823975 240.194229,746.823975 229.640442,746.823975 
	C229.640442,612.982422 229.640442,479.253815 229.640442,345.133301 
	C417.002686,345.133301 604.231201,345.133301 791.858887,345.133301 
	C791.858887,478.835419 791.858887,612.701477 791.858887,747.215393 
	C789.969421,747.215393 788.038391,747.215393 786.107300,747.215332 
	C720.287659,747.214539 654.467957,747.239746 588.648499,747.139954 
	C585.149292,747.134705 583.202271,747.946472 581.258728,751.204102 
	C568.440430,772.689209 549.381104,784.153015 524.295410,784.673035 
	C511.835541,784.931335 499.332458,784.503479 486.888062,783.744690 
	C472.867615,782.889771 460.876282,776.541382 450.838226,767.180481 
	C445.702667,762.391296 442.019348,755.988647 437.972992,750.113220 
	C436.145905,747.460327 434.089783,746.718445 430.975433,746.724182 
	C374.483734,746.828003 317.991821,746.813599 260.999908,746.824219 
M541.500000,380.190674 
	C469.014679,380.204132 396.529358,380.207977 324.044037,380.239502 
	C310.197693,380.245514 301.804077,388.249420 301.790161,401.622192 
	C301.692810,495.102112 301.626373,588.582092 301.602112,682.062073 
	C301.598175,697.255310 309.408081,705.133545 324.726868,705.142578 
	C449.534821,705.216125 574.342834,705.226135 699.150818,705.202454 
	C711.824646,705.200073 721.208130,695.657471 721.209290,683.087708 
	C721.217468,590.274536 721.017334,497.460602 721.396912,404.649017 
	C721.460815,389.025665 709.422607,379.893188 696.967224,379.999878 
	C645.481384,380.441132 593.989624,380.187805 541.500000,380.190674 
z"/>
<path fill="#FCFDFC" opacity="1.000000" stroke="none" 
	d="
M561.418335,216.703857 
	C562.855652,220.702057 564.976257,224.421997 565.028625,228.170822 
	C565.263428,244.984848 565.033508,261.809479 564.711304,278.625275 
	C564.570679,285.966980 560.422974,290.352112 553.264709,291.454712 
	C550.482117,291.883270 547.648010,292.191467 544.837280,292.192566 
	C443.527252,292.232330 342.217194,292.235046 240.907166,292.203583 
	C237.926804,292.202667 234.914230,291.981384 231.973221,291.509979 
	C226.295441,290.599976 222.439209,286.957458 222.201538,281.176239 
	C221.736649,269.868042 221.853531,258.535187 221.771164,247.212250 
	C221.727539,241.213974 222.265274,235.165466 221.668991,229.227142 
	C220.548584,218.069458 229.504974,210.759125 239.923920,210.849350 
	C295.065918,211.326813 350.215729,210.803360 405.362854,210.809540 
	C453.015137,210.814880 500.667389,211.099777 548.319763,211.155548 
	C553.458496,211.161560 557.844482,212.312469 561.418335,216.703857 
M269.591644,254.789795 
	C269.889496,255.915268 270.119507,257.063965 270.495697,258.162598 
	C273.906372,268.122559 282.612915,274.468872 291.849731,273.758850 
	C302.358276,272.951050 310.355896,265.629517 312.268921,255.065704 
	C314.017639,245.409470 308.829376,235.742783 299.582764,231.428986 
	C284.941589,224.598465 268.779541,236.687775 269.591644,254.789795 
M379.879181,270.631897 
	C386.072052,266.427124 389.380646,260.308380 390.116119,253.135193 
	C391.000092,244.513672 384.384857,234.059616 377.089600,231.295059 
	C367.290405,227.581635 358.046112,230.309494 351.454742,238.411163 
	C343.145294,248.624603 346.365295,263.113831 355.754272,269.814117 
	C363.029816,275.006134 371.194702,273.992096 379.879181,270.631897 
z"/>
<path fill="#2C75BD" opacity="1.000000" stroke="none" 
	d="
M542.000000,380.190125 
	C593.989624,380.187805 645.481384,380.441132 696.967224,379.999878 
	C709.422607,379.893188 721.460815,389.025665 721.396912,404.649017 
	C721.017334,497.460602 721.217468,590.274536 721.209290,683.087708 
	C721.208130,695.657471 711.824646,705.200073 699.150818,705.202454 
	C574.342834,705.226135 449.534821,705.216125 324.726868,705.142578 
	C309.408081,705.133545 301.598175,697.255310 301.602112,682.062073 
	C301.626373,588.582092 301.692810,495.102112 301.790161,401.622192 
	C301.804077,388.249420 310.197693,380.245514 324.044037,380.239502 
	C396.529358,380.207977 469.014679,380.204132 542.000000,380.190125 
M541.319580,618.904053 
	C543.265442,612.720276 545.149902,606.516357 547.168030,600.356262 
	C555.187195,575.879639 563.284180,551.428467 571.274170,526.942322 
	C574.158264,518.103638 576.039490,508.840790 579.829102,500.424683 
	C582.972290,493.444275 585.418884,486.670807 585.121033,479.037048 
	C584.901184,473.402191 584.925415,467.717865 584.143738,462.153534 
	C582.717407,451.999176 580.989258,441.871521 578.849670,431.847382 
	C578.461914,430.030518 575.631958,427.811768 573.692505,427.552734 
	C572.243347,427.359192 569.598267,429.697754 568.894531,431.468689 
	C566.018860,438.704651 563.458618,446.087128 561.195679,453.541199 
	C555.740417,471.510010 550.923096,489.681183 545.119934,507.533936 
	C531.297424,550.057800 517.023743,592.434814 503.015381,634.898560 
	C501.168640,640.496582 499.807587,646.254883 497.869995,653.199097 
	C508.569946,653.199097 518.000732,653.250305 527.428528,653.103882 
	C528.199768,653.091919 529.321472,651.871033 529.653503,650.978577 
	C533.528748,640.564880 537.283691,630.106384 541.319580,618.904053 
M340.018372,505.507233 
	C336.899506,507.704315 333.985901,510.299225 330.627411,512.031799 
	C313.033417,521.108154 312.697693,537.666199 316.638489,554.423828 
	C317.281982,557.160278 319.223358,560.075623 321.414459,561.872192 
	C327.702209,567.027771 334.269226,571.884094 341.015228,576.429504 
	C351.054443,583.193909 361.324066,589.617676 371.527527,596.136475 
	C381.041229,602.214600 390.464783,608.451050 400.184570,614.182739 
	C405.746429,617.462585 410.594086,616.531189 414.823425,612.548584 
	C421.109406,606.629456 420.185486,591.981079 413.151642,587.001343 
	C409.086761,584.123596 404.989532,581.280945 400.790283,578.605408 
	C382.175812,566.745239 363.524872,554.942261 344.863007,543.156799 
	C343.779266,542.472412 342.482513,542.125244 340.917206,541.466431 
	C342.996094,539.740601 343.348572,539.386047 343.757477,539.117310 
	C357.753296,529.919189 371.744293,520.713623 385.758392,511.543427 
	C395.043640,505.467560 404.326202,499.385986 413.684235,493.423553 
	C417.705261,490.861542 419.625946,487.206573 419.694672,482.637756 
	C419.744354,479.334930 419.489838,475.988342 418.971619,472.724701 
	C418.021759,466.742401 413.237549,463.100128 407.159271,463.972565 
	C404.087097,464.413513 400.827606,465.271362 398.213135,466.861755 
	C389.862061,471.941742 381.733429,477.393005 373.592957,482.812164 
	C362.546600,490.165771 351.568787,497.622284 340.018372,505.507233 
M481.067780,473.494476 
	C475.635376,490.968994 470.154907,508.428711 464.781860,525.921448 
	C456.769592,552.006531 448.688385,578.071899 440.917542,604.229126 
	C436.107727,620.419312 438.302246,636.188782 445.464203,651.266479 
	C446.444794,653.330872 449.177795,655.979248 450.971191,655.886169 
	C453.262054,655.767273 455.573364,653.305542 457.569794,651.512817 
	C458.446442,650.725586 458.670044,649.124023 459.014465,647.844971 
	C461.991486,636.788208 464.592529,625.617493 467.949615,614.678406 
	C474.294067,594.005310 481.136047,573.485535 487.643036,552.861511 
	C495.997040,526.383301 504.175171,499.849609 512.534180,473.372955 
	C515.388733,464.331207 518.615417,455.407593 521.565002,446.394958 
	C523.057800,441.833710 524.205322,436.907837 519.529358,433.636566 
	C516.204102,431.310181 512.285278,429.409149 508.355804,428.465820 
	C502.020569,426.944946 493.123413,432.828247 491.401215,438.750031 
	C488.101440,450.096497 484.701324,461.413727 481.067780,473.494476 
M708.246521,550.377380 
	C708.424194,545.554688 708.757812,540.731628 708.744263,535.909485 
	C708.722107,528.048950 705.290649,521.801697 698.907959,517.329895 
	C684.781372,507.432861 670.576416,497.647430 656.379517,487.851196 
	C648.318359,482.288788 639.810669,477.285797 632.237793,471.128448 
	C625.064453,465.295959 615.792786,463.720062 611.305847,468.998535 
	C605.407837,475.937012 605.948364,489.785217 612.738831,494.590515 
	C620.853088,500.332672 629.411560,505.442535 637.645142,511.021790 
	C652.891052,521.352722 668.040649,531.825745 682.773254,541.926270 
	C681.043457,542.788879 678.635132,543.722839 676.507996,545.093201 
	C660.873657,555.165588 645.220825,565.212830 629.732849,575.507263 
	C622.564087,580.272217 615.376892,585.139832 608.884460,590.754578 
	C602.644653,596.150818 602.737976,605.906128 608.080078,612.527954 
	C613.227173,618.908081 618.816895,619.371704 626.911621,614.054199 
	C633.835205,609.505981 640.790527,605.003723 647.644897,600.352966 
	C664.403442,588.981934 681.142151,577.581055 697.822327,566.095520 
	C703.071289,562.481140 708.162842,558.597412 708.246521,550.377380 
z"/>
<path fill="#2D77C1" opacity="1.000000" stroke="none" 
	d="
M269.515717,254.382965 
	C268.779541,236.687775 284.941589,224.598465 299.582764,231.428986 
	C308.829376,235.742783 314.017639,245.409470 312.268921,255.065704 
	C310.355896,265.629517 302.358276,272.951050 291.849731,273.758850 
	C282.612915,274.468872 273.906372,268.122559 270.495697,258.162598 
	C270.119507,257.063965 269.889496,255.915268 269.515717,254.382965 
z"/>
<path fill="#2B77C1" opacity="1.000000" stroke="none" 
	d="
M379.526367,270.786926 
	C371.194702,273.992096 363.029816,275.006134 355.754272,269.814117 
	C346.365295,263.113831 343.145294,248.624603 351.454742,238.411163 
	C358.046112,230.309494 367.290405,227.581635 377.089600,231.295059 
	C384.384857,234.059616 391.000092,244.513672 390.116119,253.135193 
	C389.380646,260.308380 386.072052,266.427124 379.526367,270.786926 
z"/>
<path fill="#FBFCFC" opacity="1.000000" stroke="none" 
	d="
M541.194946,619.281860 
	C537.283691,630.106384 533.528748,640.564880 529.653503,650.978577 
	C529.321472,651.871033 528.199768,653.091919 527.428528,653.103882 
	C518.000732,653.250305 508.569946,653.199097 497.869995,653.199097 
	C499.807587,646.254883 501.168640,640.496582 503.015381,634.898560 
	C517.023743,592.434814 531.297424,550.057800 545.119934,507.533936 
	C550.923096,489.681183 555.740417,471.510010 561.195679,453.541199 
	C563.458618,446.087128 566.018860,438.704651 568.894531,431.468689 
	C569.598267,429.697754 572.243347,427.359192 573.692505,427.552734 
	C575.631958,427.811768 578.461914,430.030518 578.849670,431.847382 
	C580.989258,441.871521 582.717407,451.999176 584.143738,462.153534 
	C584.925415,467.717865 584.901184,473.402191 585.121033,479.037048 
	C585.418884,486.670807 582.972290,493.444275 579.829102,500.424683 
	C576.039490,508.840790 574.158264,518.103638 571.274170,526.942322 
	C563.284180,551.428467 555.187195,575.879639 547.168030,600.356262 
	C545.149902,606.516357 543.265442,612.720276 541.194946,619.281860 
z"/>
<path fill="#FBFCFD" opacity="1.000000" stroke="none" 
	d="
M340.289978,505.270935 
	C351.568787,497.622284 362.546600,490.165771 373.592957,482.812164 
	C381.733429,477.393005 389.862061,471.941742 398.213135,466.861755 
	C400.827606,465.271362 404.087097,464.413513 407.159271,463.972565 
	C413.237549,463.100128 418.021759,466.742401 418.971619,472.724701 
	C419.489838,475.988342 419.744354,479.334930 419.694672,482.637756 
	C419.625946,487.206573 417.705261,490.861542 413.684235,493.423553 
	C404.326202,499.385986 395.043640,505.467560 385.758392,511.543427 
	C371.744293,520.713623 357.753296,529.919189 343.757477,539.117310 
	C343.348572,539.386047 342.996094,539.740601 340.917206,541.466431 
	C342.482513,542.125244 343.779266,542.472412 344.863007,543.156799 
	C363.524872,554.942261 382.175812,566.745239 400.790283,578.605408 
	C404.989532,581.280945 409.086761,584.123596 413.151642,587.001343 
	C420.185486,591.981079 421.109406,606.629456 414.823425,612.548584 
	C410.594086,616.531189 405.746429,617.462585 400.184570,614.182739 
	C390.464783,608.451050 381.041229,602.214600 371.527527,596.136475 
	C361.324066,589.617676 351.054443,583.193909 341.015228,576.429504 
	C334.269226,571.884094 327.702209,567.027771 321.414459,561.872192 
	C319.223358,560.075623 317.281982,557.160278 316.638489,554.423828 
	C312.697693,537.666199 313.033417,521.108154 330.627411,512.031799 
	C333.985901,510.299225 336.899506,507.704315 340.289978,505.270935 
z"/>
<path fill="#FBFCFC" opacity="1.000000" stroke="none" 
	d="
M481.205322,473.118774 
	C484.701324,461.413727 488.101440,450.096497 491.401215,438.750031 
	C493.123413,432.828247 502.020569,426.944946 508.355804,428.465820 
	C512.285278,429.409149 516.204102,431.310181 519.529358,433.636566 
	C524.205322,436.907837 523.057800,441.833710 521.565002,446.394958 
	C518.615417,455.407593 515.388733,464.331207 512.534180,473.372955 
	C504.175171,499.849609 495.997040,526.383301 487.643036,552.861511 
	C481.136047,573.485535 474.294067,594.005310 467.949615,614.678406 
	C464.592529,625.617493 461.991486,636.788208 459.014465,647.844971 
	C458.670044,649.124023 458.446442,650.725586 457.569794,651.512817 
	C455.573364,653.305542 453.262054,655.767273 450.971191,655.886169 
	C449.177795,655.979248 446.444794,653.330872 445.464203,651.266479 
	C438.302246,636.188782 436.107727,620.419312 440.917542,604.229126 
	C448.688385,578.071899 456.769592,552.006531 464.781860,525.921448 
	C470.154907,508.428711 475.635376,490.968994 481.205322,473.118774 
z"/>
<path fill="#FBFCFD" opacity="1.000000" stroke="none" 
	d="
M708.241089,550.825195 
	C708.162842,558.597412 703.071289,562.481140 697.822327,566.095520 
	C681.142151,577.581055 664.403442,588.981934 647.644897,600.352966 
	C640.790527,605.003723 633.835205,609.505981 626.911621,614.054199 
	C618.816895,619.371704 613.227173,618.908081 608.080078,612.527954 
	C602.737976,605.906128 602.644653,596.150818 608.884460,590.754578 
	C615.376892,585.139832 622.564087,580.272217 629.732849,575.507263 
	C645.220825,565.212830 660.873657,555.165588 676.507996,545.093201 
	C678.635132,543.722839 681.043457,542.788879 682.773254,541.926270 
	C668.040649,531.825745 652.891052,521.352722 637.645142,511.021790 
	C629.411560,505.442535 620.853088,500.332672 612.738831,494.590515 
	C605.948364,489.785217 605.407837,475.937012 611.305847,468.998535 
	C615.792786,463.720062 625.064453,465.295959 632.237793,471.128448 
	C639.810669,477.285797 648.318359,482.288788 656.379517,487.851196 
	C670.576416,497.647430 684.781372,507.432861 698.907959,517.329895 
	C705.290649,521.801697 708.722107,528.048950 708.744263,535.909485 
	C708.757812,540.731628 708.424194,545.554688 708.241089,550.825195 
z"/>
</svg>